<?xml version="1.0" encoding="UTF-8"?><svg id="Layer_1" xmlns="http://www.w3.org/2000/svg" xmlns:xlink="http://www.w3.org/1999/xlink" viewBox="0 0 400 400"><defs><style>.cls-1{letter-spacing:.04em;}.cls-2{fill:#6b6c6d;}.cls-3{fill:aqua;}.cls-4{clip-path:url(#clippath-1);}.cls-5{font-family:Phenomena-Bold, Phenomena;font-size:124.62px;}.cls-5,.cls-6{fill:#fff;}.cls-7{fill:lime;}.cls-6{font-family:Phenomena-Light, Phenomena;font-size:93.83px;letter-spacing:.04em;}.cls-8{clip-path:url(#clippath);}.cls-9{fill:none;}.cls-10{fill:#f0f;}.cls-11{letter-spacing:.04em;}.cls-12{fill:#c6c6c6;}.cls-13{letter-spacing:.02em;}.cls-14{fill:#fcee21;}</style><clipPath id="clippath"><rect class="cls-9" x="469.57" y="5.57" width="1500" height="500"/></clipPath><clipPath id="clippath-1"><path class="cls-9" d="M859.5-28.59c22.32,82.3-77.69,138.98-58.54,231.09,28.65,137.77,296.9,109.68,365.12,257.28,63.11,136.55-77.06,354.05-221.84,465.26-214.89,165.05-550.55,180.91-759.51,27.73C-219.71,656.3-4.68-167.15,232.48-238.11c55.89-16.72,565.4-17.72,627.02,209.52Z"/></clipPath></defs><g class="cls-8"><g class="cls-4"><path class="cls-2" d="M1721.43-734.54c38.7,142.7-134.71,240.96-101.5,400.66,49.67,238.87,514.77,190.16,633.05,446.07,109.42,236.75-133.62,613.86-384.64,806.67-372.57,286.17-954.55,313.66-1316.85,48.08C-149.71,452.94,223.1-974.77,634.29-1097.8c96.9-28.99,980.29-30.72,1087.13,363.27Z"/></g></g><g><text class="cls-5" transform="translate(41.11 201.1)"><tspan class="cls-13" x="0" y="0">B</tspan><tspan class="cls-1" x="56.08" y="0">C</tspan><tspan class="cls-11" x="111.66" y="0">I</tspan></text><g><circle class="cls-2" cx="241.33" cy="119.93" r="6.95"/><path class="cls-2" d="M303.59,119.93c0-3.84-3.11-6.95-6.95-6.95-3.36,0-6.16,2.38-6.81,5.54h-4.82c-.65-3.16-3.45-5.54-6.81-5.54-3.84,0-6.95,3.11-6.95,6.95s3.11,6.95,6.95,6.95c3.36,0,6.16-2.38,6.81-5.54h4.82c.56,2.71,2.69,4.84,5.4,5.4v4.82c-3.16,.65-5.54,3.45-5.54,6.81,0,3.84,3.11,6.95,6.95,6.95s6.95-3.11,6.95-6.95c0-3.36-2.38-6.16-5.54-6.81v-4.82c3.16-.65,5.54-3.45,5.54-6.81Z"/><path class="cls-2" d="M222.9,186.72c-1.41,0-2.72,.42-3.82,1.14l-8.81-8.81c.72-1.1,1.14-2.41,1.14-3.82,0-3.36-2.38-6.16-5.54-6.81v-4.82c3.16-.65,5.54-3.45,5.54-6.81,0-3.84-3.11-6.95-6.95-6.95s-6.95,3.11-6.95,6.95c0,3.36,2.38,6.16,5.54,6.81v4.82c-3.16,.65-5.54,3.45-5.54,6.81,0,3.84,3.11,6.95,6.95,6.95,1.41,0,2.72-.42,3.82-1.14l8.81,8.81c-.72,1.1-1.14,2.41-1.14,3.82,0,3.84,3.11,6.95,6.95,6.95s6.95-3.11,6.95-6.95-3.11-6.95-6.95-6.95Z"/><path class="cls-2" d="M296.64,186.72c-3.36,0-6.16,2.38-6.81,5.54h-4.82c-.56-2.7-2.68-4.83-5.38-5.4v-4.83c3.15-.65,5.52-3.45,5.52-6.8,0-3.84-3.11-6.95-6.95-6.95s-6.95,3.11-6.95,6.95c0,3.36,2.38,6.16,5.55,6.81v4.82c-2.71,.55-4.85,2.69-5.41,5.4h-4.76c-.65-3.16-3.45-5.54-6.81-5.54-3.84,0-6.95,3.11-6.95,6.95s3.11,6.95,6.95,6.95c3.36,0,6.16-2.38,6.81-5.54h4.76c.65,3.16,3.45,5.54,6.81,5.54s6.16-2.38,6.81-5.54h4.82c.65,3.16,3.45,5.54,6.81,5.54,3.84,0,6.95-3.11,6.95-6.95s-3.11-6.95-6.95-6.95Z"/><path class="cls-2" d="M358.89,175.23c0-3.84-3.11-6.95-6.95-6.95s-6.95,3.11-6.95,6.95c0,3.36,2.38,6.16,5.54,6.81v4.82c-.87,.18-1.69,.53-2.41,1l-8.81-8.81c.72-1.1,1.14-2.41,1.14-3.82,0-3.84-3.11-6.95-6.95-6.95s-6.95,3.11-6.95,6.95,3.11,6.95,6.95,6.95c1.41,0,2.72-.42,3.82-1.14l8.81,8.81c-.48,.72-.82,1.53-1,2.41h-4.82c-.65-3.16-3.45-5.54-6.81-5.54-3.84,0-6.95,3.11-6.95,6.95s3.11,6.95,6.95,6.95c3.36,0,6.16-2.38,6.81-5.54h4.82c.65,3.16,3.45,5.54,6.81,5.54,3.84,0,6.95-3.11,6.95-6.95,0-3.36-2.38-6.16-5.54-6.81v-4.82c3.16-.65,5.54-3.45,5.54-6.81Z"/><circle class="cls-2" cx="259.77" cy="119.93" r="6.95" transform="translate(-26.12 108.54) rotate(-22.5)"/><path class="cls-2" d="M315.07,112.98c-3.84,0-6.95,3.11-6.95,6.95s3.11,6.95,6.95,6.95,6.95-3.11,6.95-6.95-3.11-6.95-6.95-6.95Z"/><circle class="cls-2" cx="259.77" cy="138.36" r="6.95" transform="translate(-33.17 109.94) rotate(-22.5)"/><circle class="cls-2" cx="222.9" cy="138.36" r="6.95"/><circle class="cls-2" cx="278.2" cy="138.36" r="6.95"/><circle class="cls-2" cx="333.51" cy="138.36" r="6.95" transform="translate(-27.56 138.16) rotate(-22.5)"/><circle class="cls-2" cx="278.2" cy="156.8" r="6.95"/><circle class="cls-2" cx="351.94" cy="156.8" r="6.95" transform="translate(-33.21 146.62) rotate(-22.5)"/><circle class="cls-2" cx="259.77" cy="175.23" r="6.95" transform="translate(-47.28 112.75) rotate(-22.5)"/><circle class="cls-2" cx="222.9" cy="175.23" r="6.95"/><circle class="cls-2" cx="296.64" cy="175.23" r="6.95" transform="translate(-44.48 126.86) rotate(-22.5)"/><circle class="cls-2" cx="241.33" cy="193.67" r="6.95"/><path class="cls-2" d="M315.07,186.72c-3.84,0-6.95,3.11-6.95,6.95s3.11,6.95,6.95,6.95,6.95-3.11,6.95-6.95-3.11-6.95-6.95-6.95Z"/><circle class="cls-2" cx="296.64" cy="212.1" r="6.95" transform="translate(-58.59 129.66) rotate(-22.5)"/><circle class="cls-2" cx="333.51" cy="212.1" r="6.95" transform="translate(-55.78 143.77) rotate(-22.5)"/><circle class="cls-2" cx="351.94" cy="212.1" r="6.95" transform="translate(-54.38 150.83) rotate(-22.5)"/><path class="cls-2" d="M322.02,212.1c0-3.84-3.11-6.95-6.95-6.95s-6.95,3.11-6.95,6.95c0,3.36,2.38,6.16,5.54,6.81v4.82c-3.16,.65-5.54,3.45-5.54,6.81,0,3.84,3.11,6.95,6.95,6.95s6.95-3.11,6.95-6.95c0-3.36-2.38-6.16-5.54-6.81v-4.82c3.16-.65,5.54-3.45,5.54-6.81Z"/><circle class="cls-2" cx="333.51" cy="230.54" r="6.95" transform="translate(-62.84 145.18) rotate(-22.5)"/><path class="cls-3" d="M315.07,131.41c-3.84,0-6.95,3.11-6.95,6.95s3.11,6.95,6.95,6.95,6.95-3.11,6.95-6.95-3.11-6.95-6.95-6.95Z"/><circle class="cls-14" cx="296.64" cy="156.8" r="6.95" transform="translate(-37.42 125.45) rotate(-22.5)"/><path class="cls-12" d="M315.07,149.85c-3.84,0-6.95,3.11-6.95,6.95s3.11,6.95,6.95,6.95,6.95-3.11,6.95-6.95-3.11-6.95-6.95-6.95Z"/><circle class="cls-10" cx="333.51" cy="156.8" r="6.95" transform="translate(-34.62 139.56) rotate(-22.5)"/><path class="cls-7" d="M315.07,168.28c-3.84,0-6.95,3.11-6.95,6.95s3.11,6.95,6.95,6.95,6.95-3.11,6.95-6.95-3.11-6.95-6.95-6.95Z"/><path class="cls-10" d="M250.57,159.96c1.66,0,3.16,.66,4.25,1.74h.01c1.26,1.26,3,2.05,4.93,2.05,3.84,0,6.95-3.11,6.95-6.95s-3.11-6.95-6.95-6.95c-1.93,0-3.67,.79-4.93,2.06h0c-1.1,1.06-2.6,1.73-4.25,1.73-3.36,0-6.09-2.73-6.09-6.09,0-1.66,.66-3.16,1.74-4.25h0c1.27-1.26,2.06-3,2.06-4.93,0-3.84-3.11-6.95-6.95-6.95s-6.95,3.11-6.95,6.95c0,1.83,.72,3.49,1.88,4.73,1.19,1.11,1.95,2.69,1.95,4.45,0,3.36-2.73,6.09-6.09,6.09-1.66,0-3.17-.67-4.27-1.75l-.02,.02c-1.26-1.27-3-2.06-4.93-2.06-3.84,0-6.95,3.11-6.95,6.95s3.11,6.95,6.95,6.95c1.93,0,3.67-.79,4.93-2.06l.02,.02c1.1-1.08,2.61-1.75,4.27-1.75,3.36,0,6.09,2.73,6.09,6.09,0,1.76-.76,3.35-1.95,4.46-1.16,1.24-1.87,2.9-1.87,4.73,0,3.84,3.11,6.95,6.95,6.95s6.95-3.11,6.95-6.95c0-1.93-.79-3.67-2.06-4.93h0c-1.07-1.1-1.74-2.6-1.74-4.25,0-3.36,2.73-6.09,6.09-6.09Z"/></g><text class="cls-6" transform="translate(44.05 283.62)"><tspan x="0" y="0">Games</tspan></text></g></svg>