<?xml version="1.0" encoding="UTF-8"?><svg id="Layer_1" xmlns="http://www.w3.org/2000/svg" viewBox="0 0 317.79 209.65"><defs><style>.cls-1{letter-spacing:.1em;}.cls-2{fill:#6b6c6d;}.cls-3{fill:aqua;}.cls-4{font-family:Phenomena-Bold, Phenomena;font-size:124.62px;}.cls-4,.cls-5{fill:#fff;}.cls-6{fill:lime;}.cls-5{font-family:Phenomena-Light, Phenomena;font-size:93.83px;letter-spacing:.1em;}.cls-7{fill:#f0f;}.cls-8{letter-spacing:.1em;}.cls-9{fill:#c6c6c6;}.cls-10{letter-spacing:.1em;}.cls-11{fill:#fcee21;}</style></defs><text class="cls-4" transform="translate(0 105.93)"><tspan class="cls-10" x="0" y="0">B</tspan><tspan class="cls-1" x="56.08" y="0">C</tspan><tspan class="cls-8" x="111.66" y="0">I</tspan></text><g><circle class="cls-2" cx="200.23" cy="24.75" r="6.95"/><path class="cls-2" d="M262.48,24.75c0-3.84-3.11-6.95-6.95-6.95-3.36,0-6.16,2.38-6.81,5.54h-4.82c-.65-3.16-3.45-5.54-6.81-5.54-3.84,0-6.95,3.11-6.95,6.95s3.11,6.95,6.95,6.95c3.36,0,6.16-2.38,6.81-5.54h4.82c.56,2.71,2.69,4.84,5.4,5.4v4.82c-3.16,.65-5.54,3.45-5.54,6.81,0,3.84,3.11,6.95,6.95,6.95s6.95-3.11,6.95-6.95c0-3.36-2.38-6.16-5.54-6.81v-4.82c3.16-.65,5.54-3.45,5.54-6.81Z"/><path class="cls-2" d="M181.79,91.54c-1.41,0-2.72,.42-3.82,1.14l-8.81-8.81c.72-1.1,1.14-2.41,1.14-3.82,0-3.36-2.38-6.16-5.54-6.81v-4.82c3.16-.65,5.54-3.45,5.54-6.81,0-3.84-3.11-6.95-6.95-6.95s-6.95,3.11-6.95,6.95c0,3.36,2.38,6.16,5.54,6.81v4.82c-3.16,.65-5.54,3.45-5.54,6.81,0,3.84,3.11,6.95,6.95,6.95,1.41,0,2.72-.42,3.82-1.14l8.81,8.81c-.72,1.1-1.14,2.41-1.14,3.82,0,3.84,3.11,6.95,6.95,6.95s6.95-3.11,6.95-6.95-3.11-6.95-6.95-6.95Z"/><path class="cls-2" d="M255.53,91.54c-3.36,0-6.16,2.38-6.81,5.54h-4.82c-.56-2.7-2.68-4.83-5.38-5.4v-4.83c3.15-.65,5.52-3.45,5.52-6.8,0-3.84-3.11-6.95-6.95-6.95s-6.95,3.11-6.95,6.95c0,3.36,2.38,6.16,5.55,6.81v4.82c-2.71,.55-4.85,2.69-5.41,5.4h-4.76c-.65-3.16-3.45-5.54-6.81-5.54-3.84,0-6.95,3.11-6.95,6.95s3.11,6.95,6.95,6.95c3.36,0,6.16-2.38,6.81-5.54h4.76c.65,3.16,3.45,5.54,6.81,5.54s6.16-2.38,6.81-5.54h4.82c.65,3.16,3.45,5.54,6.81,5.54,3.84,0,6.95-3.11,6.95-6.95s-3.11-6.95-6.95-6.95Z"/><path class="cls-2" d="M317.79,80.05c0-3.84-3.11-6.95-6.95-6.95s-6.95,3.11-6.95,6.95c0,3.36,2.38,6.16,5.54,6.81v4.82c-.87,.18-1.69,.53-2.41,1l-8.81-8.81c.72-1.1,1.14-2.41,1.14-3.82,0-3.84-3.11-6.95-6.95-6.95s-6.95,3.11-6.95,6.95,3.11,6.95,6.95,6.95c1.41,0,2.72-.42,3.82-1.14l8.81,8.81c-.48,.72-.82,1.53-1,2.41h-4.82c-.65-3.16-3.45-5.54-6.81-5.54-3.84,0-6.95,3.11-6.95,6.95s3.11,6.95,6.95,6.95c3.36,0,6.16-2.38,6.81-5.54h4.82c.65,3.16,3.45,5.54,6.81,5.54,3.84,0,6.95-3.11,6.95-6.95,0-3.36-2.38-6.16-5.54-6.81v-4.82c3.16-.65,5.54-3.45,5.54-6.81Z"/><circle class="cls-2" cx="218.66" cy="24.75" r="6.95" transform="translate(7.17 85.56) rotate(-22.5)"/><path class="cls-2" d="M273.97,17.8c-3.84,0-6.95,3.11-6.95,6.95s3.11,6.95,6.95,6.95,6.95-3.11,6.95-6.95-3.11-6.95-6.95-6.95Z"/><circle class="cls-2" cx="218.66" cy="43.18" r="6.95" transform="translate(.12 86.97) rotate(-22.5)"/><circle class="cls-2" cx="181.79" cy="43.18" r="6.95"/><circle class="cls-2" cx="237.1" cy="43.18" r="6.95"/><circle class="cls-2" cx="292.4" cy="43.18" r="6.95" transform="translate(5.73 115.18) rotate(-22.5)"/><circle class="cls-2" cx="237.1" cy="61.62" r="6.95"/><circle class="cls-2" cx="310.84" cy="61.62" r="6.95" transform="translate(.08 123.64) rotate(-22.5)"/><circle class="cls-2" cx="218.66" cy="80.05" r="6.95" transform="translate(-13.99 89.77) rotate(-22.5)"/><circle class="cls-2" cx="181.79" cy="80.05" r="6.95"/><circle class="cls-2" cx="255.53" cy="80.05" r="6.95" transform="translate(-11.18 103.88) rotate(-22.5)"/><circle class="cls-2" cx="200.23" cy="98.49" r="6.95"/><path class="cls-2" d="M273.97,91.54c-3.84,0-6.95,3.11-6.95,6.95s3.11,6.95,6.95,6.95,6.95-3.11,6.95-6.95-3.11-6.95-6.95-6.95Z"/><circle class="cls-2" cx="255.53" cy="116.93" r="6.95" transform="translate(-25.29 106.69) rotate(-22.5)"/><circle class="cls-2" cx="292.4" cy="116.93" r="6.95" transform="translate(-22.49 120.8) rotate(-22.5)"/><circle class="cls-2" cx="310.84" cy="116.93" r="6.95" transform="translate(-21.08 127.85) rotate(-22.5)"/><path class="cls-2" d="M280.92,116.93c0-3.84-3.11-6.95-6.95-6.95s-6.95,3.11-6.95,6.95c0,3.36,2.38,6.16,5.54,6.81v4.82c-3.16,.65-5.54,3.45-5.54,6.81,0,3.84,3.11,6.95,6.95,6.95s6.95-3.11,6.95-6.95c0-3.36-2.38-6.16-5.54-6.81v-4.82c3.16-.65,5.54-3.45,5.54-6.81Z"/><circle class="cls-2" cx="292.4" cy="135.36" r="6.95" transform="translate(-29.54 122.2) rotate(-22.5)"/><path class="cls-3" d="M273.97,36.23c-3.84,0-6.95,3.11-6.95,6.95s3.11,6.95,6.95,6.95,6.95-3.11,6.95-6.95-3.11-6.95-6.95-6.95Z"/><circle class="cls-11" cx="255.53" cy="61.62" r="6.95" transform="translate(-4.13 102.48) rotate(-22.5)"/><path class="cls-9" d="M273.97,54.67c-3.84,0-6.95,3.11-6.95,6.95s3.11,6.95,6.95,6.95,6.95-3.11,6.95-6.95-3.11-6.95-6.95-6.95Z"/><circle class="cls-7" cx="292.4" cy="61.62" r="6.95" transform="translate(-1.32 116.59) rotate(-22.5)"/><path class="cls-6" d="M273.97,73.11c-3.84,0-6.95,3.11-6.95,6.95s3.11,6.95,6.95,6.95,6.95-3.11,6.95-6.95-3.11-6.95-6.95-6.95Z"/><path class="cls-7" d="M209.46,64.78c1.66,0,3.16,.66,4.25,1.74h.01c1.26,1.26,3,2.05,4.93,2.05,3.84,0,6.95-3.11,6.95-6.95s-3.11-6.95-6.95-6.95c-1.93,0-3.67,.79-4.93,2.06h0c-1.1,1.06-2.6,1.73-4.25,1.73-3.36,0-6.09-2.73-6.09-6.09,0-1.66,.66-3.16,1.74-4.25h0c1.27-1.26,2.06-3,2.06-4.93,0-3.84-3.11-6.95-6.95-6.95s-6.95,3.11-6.95,6.95c0,1.83,.72,3.49,1.88,4.73,1.19,1.11,1.95,2.69,1.95,4.45,0,3.36-2.73,6.09-6.09,6.09-1.66,0-3.17-.67-4.27-1.75l-.02,.02c-1.26-1.27-3-2.06-4.93-2.06-3.84,0-6.95,3.11-6.95,6.95s3.11,6.95,6.95,6.95c1.93,0,3.67-.79,4.93-2.06l.02,.02c1.1-1.08,2.61-1.75,4.27-1.75,3.36,0,6.09,2.73,6.09,6.09,0,1.76-.76,3.35-1.95,4.46-1.16,1.24-1.87,2.9-1.87,4.73,0,3.84,3.11,6.95,6.95,6.95s6.95-3.11,6.95-6.95c0-1.93-.79-3.67-2.06-4.93h0c-1.07-1.1-1.74-2.6-1.74-4.25,0-3.36,2.73-6.09,6.09-6.09Z"/></g><text class="cls-5" transform="translate(2.94 188.44)"><tspan x="0" y="0">Games</tspan></text></svg>