<?xml version="1.0" encoding="utf-8"?>
<!-- Generator: Adobe Illustrator 26.5.0, SVG Export Plug-In . SVG Version: 6.00 Build 0)  -->
<svg version="1.1" id="Layer_1" xmlns="http://www.w3.org/2000/svg" xmlns:xlink="http://www.w3.org/1999/xlink" x="0px" y="0px"
	 viewBox="0 0 317.8 209.6" style="enable-background:new 0 0 317.8 209.6;" xml:space="preserve">
<style type="text/css">
	.st0{enable-background:new    ;}
	.st1{fill:#FFFFFF;}
	.st2{fill:#6B6C6D;}
	.st3{fill:#00FFFF;}
	.st4{fill:#FCEE21;}
	.st5{fill:#C6C6C6;}
	.st6{fill:#FF00FF;}
	.st7{fill:#00FF00;}
</style>
<g class="st0">
	<path class="st1" d="M49.5,78.4v5.7c0,13.5-8.6,22.2-21.2,22.2H11.7c-2.9,0-5-2.1-5-5.1V39.4c0-13.2,8.1-21.9,20.2-21.9
		c12.5,0,20.7,8.7,20.7,21.9v5.5c0,7.4-3.1,13.3-8.2,16.2C45.6,64.2,49.5,70.5,49.5,78.4z M17.9,56.7h9c5.9,0,9.5-4.1,9.5-11v-7
		c0-6.7-3.5-10.8-9.5-10.8c-5.6,0-9,4.1-9,10.8V56.7z M38,78.3c0-7.1-3.6-11.3-10-11.3H17.9v29H28c6.4,0,10-4.2,10-11.2V78.3z"/>
</g>
<g class="st0">
	<path class="st1" d="M61.4,84.9V39.8c0-13.5,8.6-22.4,21.3-22.4c12.2,0,20.6,9.3,20.9,23.9c0,1-0.5,1.6-1.6,1.6h-8
		c-1,0-1.6-0.5-1.6-1.6c-0.2-8.7-4.1-13.3-9.8-13.3c-6.2,0-9.8,4.2-9.8,11.2v46.4c0,7,3.6,11.2,9.8,11.2c6.4,0,10.2-5.1,10.5-14.2
		c0-1.1,0.6-1.6,1.6-1.6h8c1,0,1.6,0.6,1.6,1.7c-0.5,15.1-8.8,24.7-21.6,24.7C70,107.3,61.4,98.3,61.4,84.9z"/>
</g>
<g class="st0">
	<path class="st1" d="M120.9,18.7h7.9c1,0,1.6,0.6,1.6,1.6v83.9c0,1.1-0.6,1.7-1.6,1.7h-7.9c-1.1,0-1.7-0.6-1.7-1.7V20.3
		C119.1,19.3,119.8,18.7,120.9,18.7z"/>
</g>
<g>
	<circle class="st2" cx="200.2" cy="24.8" r="6.9"/>
	<path class="st2" d="M262.5,24.8c0-3.8-3.1-7-6.9-7c-3.4,0-6.2,2.4-6.8,5.5h-4.8c-0.6-3.2-3.4-5.5-6.8-5.5c-3.8,0-6.9,3.1-6.9,7
		s3.1,7,6.9,7c3.4,0,6.2-2.4,6.8-5.5h4.8c0.6,2.7,2.7,4.8,5.4,5.4v4.8c-3.2,0.7-5.5,3.5-5.5,6.8c0,3.8,3.1,7,6.9,7
		c3.8,0,6.9-3.1,6.9-7c0-3.4-2.4-6.2-5.5-6.8v-4.8C260.1,30.9,262.5,28.1,262.5,24.8z"/>
	<path class="st2" d="M181.8,91.5c-1.4,0-2.7,0.4-3.8,1.1l-8.8-8.8c0.7-1.1,1.1-2.4,1.1-3.8c0-3.4-2.4-6.2-5.5-6.8v-4.8
		c3.2-0.7,5.5-3.4,5.5-6.8c0-3.8-3.1-7-6.9-7s-6.9,3.1-6.9,7c0,3.4,2.4,6.2,5.5,6.8v4.8c-3.2,0.7-5.5,3.4-5.5,6.8
		c0,3.8,3.1,6.9,6.9,6.9c1.4,0,2.7-0.4,3.8-1.1l8.8,8.8c-0.7,1.1-1.1,2.4-1.1,3.8c0,3.8,3.1,6.9,6.9,6.9s6.9-3.1,6.9-6.9
		S185.6,91.5,181.8,91.5z"/>
	<path class="st2" d="M255.5,91.5c-3.4,0-6.2,2.4-6.8,5.5h-4.8c-0.6-2.7-2.7-4.8-5.4-5.4v-4.8c3.1-0.7,5.5-3.4,5.5-6.8
		c0-3.8-3.1-6.9-6.9-6.9s-6.9,3.1-6.9,6.9c0,3.4,2.4,6.2,5.6,6.8v4.8c-2.7,0.6-4.9,2.7-5.4,5.4h-4.8c-0.6-3.2-3.4-5.5-6.8-5.5
		c-3.8,0-6.9,3.1-6.9,6.9s3.1,6.9,6.9,6.9c3.4,0,6.2-2.4,6.8-5.5h4.8c0.6,3.2,3.4,5.5,6.8,5.5s6.2-2.4,6.8-5.5h4.8
		c0.6,3.2,3.4,5.5,6.8,5.5c3.8,0,7-3.1,7-6.9S259.4,91.5,255.5,91.5L255.5,91.5z"/>
	<path class="st2" d="M317.8,80.1c0-3.8-3.1-6.9-7-6.9s-7,3.1-7,6.9c0,3.4,2.4,6.2,5.5,6.8v4.8c-0.9,0.2-1.7,0.5-2.4,1l-8.8-8.8
		c0.7-1.1,1.1-2.4,1.1-3.8c0-3.8-3.1-6.9-7-6.9s-7,3.1-7,6.9s3.1,6.9,7,6.9c1.4,0,2.7-0.4,3.8-1.1l8.8,8.8c-0.5,0.7-0.8,1.5-1,2.4
		h-4.8c-0.6-3.2-3.5-5.5-6.8-5.5c-3.8,0-7,3.1-7,6.9s3.1,6.9,7,6.9c3.4,0,6.2-2.4,6.8-5.5h4.8c0.6,3.2,3.5,5.5,6.8,5.5
		c3.8,0,7-3.1,7-6.9c0-3.4-2.4-6.2-5.5-6.8v-4.8C315.4,86.2,317.8,83.4,317.8,80.1z"/>
	<circle class="st2" cx="218.7" cy="24.7" r="6.9"/>
	<path class="st2" d="M274,17.8c-3.8,0-7,3.1-7,7s3.1,7,7,7s7-3.1,7-7S277.8,17.8,274,17.8z"/>
	<circle class="st2" cx="218.7" cy="43.2" r="6.9"/>
	<circle class="st2" cx="181.8" cy="43.2" r="6.9"/>
	<circle class="st2" cx="237.1" cy="43.2" r="6.9"/>
	<ellipse transform="matrix(0.9239 -0.3827 0.3827 0.9239 5.7344 115.182)" class="st2" cx="292.4" cy="43.2" rx="7" ry="7"/>
	<circle class="st2" cx="237.1" cy="61.6" r="6.9"/>
	
		<ellipse transform="matrix(0.9239 -0.3827 0.3827 0.9239 8.178243e-02 123.6434)" class="st2" cx="310.8" cy="61.6" rx="7" ry="7"/>
	<circle class="st2" cx="218.7" cy="80" r="6.9"/>
	<circle class="st2" cx="181.8" cy="80.1" r="6.9"/>
	<ellipse transform="matrix(0.9732 -0.2298 0.2298 0.9732 -11.5558 60.8508)" class="st2" cx="255.5" cy="80" rx="7" ry="6.9"/>
	<circle class="st2" cx="200.2" cy="98.5" r="6.9"/>
	<path class="st2" d="M274,91.5c-3.8,0-7,3.1-7,6.9s3.1,6.9,7,6.9s7-3.1,7-6.9S277.8,91.5,274,91.5z"/>
	<ellipse transform="matrix(0.9732 -0.2298 0.2298 0.9732 -20.0297 61.8382)" class="st2" cx="255.5" cy="116.9" rx="7" ry="6.9"/>
	<ellipse transform="matrix(0.9239 -0.3827 0.3827 0.9239 -22.4906 120.7974)" class="st2" cx="292.4" cy="116.9" rx="7" ry="6.9"/>
	<ellipse transform="matrix(0.9239 -0.3827 0.3827 0.9239 -21.0839 127.856)" class="st2" cx="310.8" cy="116.9" rx="7" ry="6.9"/>
	<path class="st2" d="M280.9,116.9c0-3.8-3.1-6.9-7-6.9s-7,3.1-7,6.9c0,3.4,2.4,6.2,5.5,6.8v4.8c-3.2,0.6-5.5,3.4-5.5,6.8
		c0,3.8,3.1,6.9,7,6.9s7-3.1,7-6.9c0-3.4-2.4-6.2-5.5-6.8v-4.8C278.5,123.1,280.9,120.3,280.9,116.9z"/>
	<ellipse transform="matrix(0.9239 -0.3827 0.3827 0.9239 -29.5421 122.2012)" class="st2" cx="292.4" cy="135.4" rx="7" ry="6.9"/>
	<path class="st3" d="M274,36.2c-3.8,0-7,3.1-7,7s3.1,7,7,7s7-3.1,7-7S277.8,36.2,274,36.2z"/>
	<ellipse transform="matrix(0.9871 -0.1602 0.1602 0.9871 -6.5713 41.7271)" class="st4" cx="255.5" cy="61.6" rx="7" ry="7"/>
	<path class="st5" d="M274,54.7c-3.8,0-7,3.1-7,7s3.1,7,7,7s7-3.1,7-7S277.8,54.7,274,54.7z"/>
	<ellipse transform="matrix(0.9239 -0.3827 0.3827 0.9239 -1.3242 116.5887)" class="st6" cx="292.4" cy="61.6" rx="7" ry="7"/>
	<path class="st7" d="M274,73.1c-3.8,0-7,3.1-7,6.9s3.1,6.9,7,6.9s7-3.1,7-6.9S277.8,73.1,274,73.1z"/>
	<path class="st6" d="M209.5,64.8c1.7,0,3.2,0.7,4.2,1.7h0c1.3,1.3,3,2.1,4.9,2.1c3.8,0,6.9-3.1,6.9-7s-3.1-7-6.9-7
		c-1.9,0-3.7,0.8-4.9,2.1l0,0c-1.1,1.1-2.6,1.7-4.2,1.7c-3.4,0-6.1-2.7-6.1-6.1c0-1.7,0.7-3.2,1.7-4.2l0,0c1.3-1.3,2.1-3,2.1-4.9
		c0-3.8-3.1-7-6.9-7s-6.9,3.1-6.9,7c0,1.8,0.7,3.5,1.9,4.7c1.2,1.1,1.9,2.7,1.9,4.5c0,3.4-2.7,6.1-6.1,6.1c-1.7,0-3.2-0.7-4.3-1.8
		l0,0c-1.3-1.3-3-2.1-4.9-2.1c-3.8,0-6.9,3.1-6.9,7s3.1,7,6.9,7c1.9,0,3.7-0.8,4.9-2.1l0,0c1.1-1.1,2.6-1.8,4.3-1.8
		c3.4,0,6.1,2.7,6.1,6.1c0,1.8-0.8,3.3-1.9,4.5c-1.2,1.2-1.9,2.9-1.9,4.7c0,3.8,3.1,6.9,6.9,6.9s6.9-3.1,6.9-6.9
		c0-1.9-0.8-3.7-2.1-4.9l0,0c-1.1-1.1-1.7-2.6-1.7-4.2C203.4,67.5,206.1,64.8,209.5,64.8L209.5,64.8z"/>
</g>
<g class="st0">
	<path class="st1" d="M7.9,172.8V139c0-10.2,6.4-17.1,15.5-17.1c8.9,0,15,6.7,15.3,15.7c0,0.5-0.3,0.8-0.8,0.8h-2.8
		c-0.5,0-0.8-0.3-0.8-0.8c-0.4-6.8-4.7-11.5-11-11.5c-6.6,0-11.1,5-11.1,13v33.7c0,7.4,4.8,12.4,11.3,12.4c6.6,0,11.4-5,11.4-11.8
		v-15.4h-10c-0.5,0-0.8-0.3-0.8-0.8v-2.5c0-0.5,0.3-0.8,0.8-0.8h12.2c1.4,0,2.2,0.8,2.2,2.2v17.3c0,9.1-6.7,16-15.7,16
		S7.9,182.4,7.9,172.8z"/>
	<path class="st1" d="M51.1,174.6c0-7.6,5.5-13.3,14.4-13.3h9.4v-6.2c0-6.3-3.6-10.4-9.5-10.4c-5.6,0-9,3.8-9.4,9.1
		c-0.1,0.6-0.4,0.8-0.8,0.8h-2.5c-0.5,0-0.8-0.4-0.8-0.8c0.5-7.6,5.5-13.1,13.6-13.1c8.4,0,13.7,5.9,13.7,14.4v19.5
		c0,8.5-5.3,14.5-13.7,14.5C56.6,189.2,51.1,183.4,51.1,174.6z M74.9,174.6v-9.4h-9.4c-6.6,0-10.2,3.9-10.2,9.4
		c0,6.5,3.7,10.6,10.1,10.6C71.4,185.2,74.9,181,74.9,174.6z"/>
	<path class="st1" d="M140.9,155.1v32.6c0,0.5-0.3,0.8-0.8,0.8h-2.6c-0.5,0-0.8-0.3-0.8-0.8v-32.6c0-6-3.1-10.4-8.9-10.4
		c-5.4,0-8.8,4.4-8.8,10.4v32.6c0,0.5-0.3,0.8-0.8,0.8h-2.6c-0.5,0-0.8-0.3-0.8-0.8v-32.6c0-6-3.4-10.4-8.8-10.4
		c-5.8,0-8.9,4.4-8.9,10.4v32.6c0,0.5-0.4,0.8-0.8,0.8h-2.5c-0.5,0-0.8-0.3-0.8-0.8v-32.6c0-8.2,5-14.4,13.1-14.4
		c5.1,0,8.9,3.1,10.9,7.5c1.9-4.4,5.8-7.5,10.9-7.5C135.9,140.7,140.9,147,140.9,155.1z"/>
	<path class="st1" d="M154.8,174.7v-19.4c0-8.4,5.4-14.5,14-14.5c8.4,0,14,6.2,14,14.2c0,7.8-5.4,13.6-14.6,13.6H159v6.2
		c0,6,3.4,10.5,9.7,10.5c6,0,9.5-4.3,9.7-10.3c0-0.5,0.4-0.8,0.8-0.8h2.5c0.5,0,0.8,0.3,0.8,0.8c-0.3,8.3-5.5,14.3-13.9,14.3
		C160,189.2,154.8,183.2,154.8,174.7z M168.1,164.5c6.8,0,10.4-4,10.4-9.6c0-5.8-3.8-10.2-9.8-10.2c-6.2,0-9.8,4.3-9.8,10.6v9.2
		H168.1z"/>
	<path class="st1" d="M194.4,175c0-0.5,0.4-0.8,0.8-0.8h2.5c0.5,0,0.8,0.2,0.8,0.8c0.2,6.9,3.8,10.2,10.3,10.2
		c5.7,0,9.2-3.3,9.2-8.4c0-12.3-23.4-8.1-23.4-23.9c0-6.8,5.3-12.3,13.2-12.3c8.5,0,13.3,5.2,13.6,13.1c0,0.5-0.3,0.8-0.8,0.8h-2.6
		c-0.5,0-0.8-0.3-0.8-0.8c-0.3-5.4-3.6-9.1-9.3-9.1c-5.4,0-9.3,3.3-9.3,8.3c0,12.1,23.5,7.9,23.5,23.9c0,6.9-5.6,12.4-13.4,12.4
		C200.2,189.3,194.7,183.8,194.4,175z"/>
</g>
</svg>
